<?xml version="1.0" encoding="UTF-8"?>
<svg id="_图层_1" data-name="图层 1" xmlns="http://www.w3.org/2000/svg" viewBox="0 0 84.16 94.03">
  <defs>
    <style>
      .cls-1 {
        fill: #231815;
      }
    </style>
  </defs>
  <path class="cls-1" d="M27.03,4.95l6.64,6.05c-.5.76-1.22.94-2.92,1.12C27.19,30.61,19.31,50.84.93,63.6l-.93-.79C13.61,49.24,21.33,27.93,24.09,8.87h-.8l3.74-3.92ZM27.94,10.96H2.16l-.65-2.09h26.42v2.09ZM29.81,45.72c4.73,10.47-2.52,15.47-5.77,7.24-2.41-9.07-9.69-24.59-19.11-34.21l.97-.61c11.75,8.92,19.76,18.7,23.91,27.58ZM67.86,18.58c-.18.79-.9,1.15-1.87,1.15H30.81l-.58-2.09h27.51l3.65-5.54s4.19,3.87,6.47,6.48ZM56.85,2.92v54.54c0,5.04-1.16,8.12-10.22,8.95-.25-2.22-.76-3.89-2.06-5.02-1.37-1.16-3.35-1.96-7.43-2.58v-1.01s9.19.57,10.99.57c1.44,0,1.87-.43,1.87-1.51V0l9.47.98c-.18,1.04-.9,1.69-2.63,1.95Z"/>
  <path class="cls-1" d="M33.12,39.34c-.51.13-.89.57-.89,1.1v51.27c0,.83-2.88,2.32-5.57,2.32h-1.24v-56.42c0-.67.57-1.19,1.24-1.13,1.58.16,4.35.44,6.27.63,1.23.12,1.41,1.88.22,2.21-.02,0-.03,0-.05.01ZM40.24,40.95c-.21-.19-.44-.36-.53-.63-1.55-4.46-4.96-10.01-8.28-13.26l.79-.68c18.59,4.44,16.09,21.89,8.02,14.58ZM78.02,35.76h-27.85c4.11,3.38,2.13-.27,2-.71l-.49-.5c-.21-.67,2.82-4.01-1.5-.87h27.85c.58,0,1.04.47,1.04,1.04h0c0,.58-.47,1.04-1.04,1.04ZM78.49,30.48l5.23,4.01c.67.52.57,1.58-.21,1.93-.24.11-.5.21-.78.29-.47.15-.8.58-.8,1.08v47.4c0,4.69-1.06,7.67-9,8.65-.6.07-1.16-.34-1.27-.94-.29-1.68-.81-3.01-1.83-3.89-1.37-1.13-3.31-1.92-7.32-2.54v-1.04s9.01.61,10.74.61c1.44,0,1.83-.54,1.83-1.65v-50.72h-.72l2.57-3.02c.39-.46,1.07-.53,1.55-.16Z"/>
  <path class="cls-1" d="M8,86.03c.28,0,.52-.1.71-.29s.29-.43.29-.71-.1-.52-.29-.71c-.19-.19-.43-.29-.71-.29s-.52.1-.71.29c-.19.19-.29.43-.29.71s.1.52.29.71.43.29.71.29ZM4,94.03v-2l6-1v-11.13c0-.25-.08-.48-.23-.68s-.34-.32-.58-.35l-5.2-.85v-2l5.5.9c.73.13,1.33.48,1.8,1.03s.7,1.19.7,1.93v12.8l-8,1.35ZM0,94.03v-2h2v-14c0-.57.2-1.04.59-1.43s.86-.58,1.41-.58h10c.57,0,1.04.19,1.43.58s.58.86.58,1.43v14h2v2H0ZM4,92.03h10v-14H4v14Z"/>
</svg>